<?xml version="1.0" encoding="UTF-8"?>
<svg version="1.1" xmlns="http://www.w3.org/2000/svg" width="665" height="350">
<path d="M0 0 C219.45 0 438.9 0 665 0 C665 115.5 665 231 665 350 C445.55 350 226.1 350 0 350 C0 234.5 0 119 0 0 Z " fill="#F3F3F3" transform="translate(0,0)"/>
<path d="M0 0 C79.86 0 159.72 0 242 0 C242 8.25 242 16.5 242 25 C230.45 25 218.9 25 207 25 C207 41.83 207 58.66 207 76 C218.55 76 230.1 76 242 76 C242 84.25 242 92.5 242 101 C162.14 101 82.28 101 0 101 C0 67.67 0 34.34 0 0 Z " fill="#111969" transform="translate(157,124)"/>
<path d="M0 0 C4.33125 -0.061875 8.6625 -0.12375 13.125 -0.1875 C14.47996582 -0.21481201 15.83493164 -0.24212402 17.23095703 -0.27026367 C18.85300049 -0.28150269 18.85300049 -0.28150269 20.5078125 -0.29296875 C21.60754395 -0.3086792 22.70727539 -0.32438965 23.84033203 -0.34057617 C28.71545649 0.18490665 31.95643611 1.90002725 35.3125 5.4375 C38.49142463 10.26475593 38.49963923 15.36517977 38 21 C37.06590201 25.50425219 35.99272852 28.12050458 32.5 31.21484375 C27.87184099 33.57541146 24.22896732 33.44985414 19.125 33.25 C17.80628906 33.22292969 17.80628906 33.22292969 16.4609375 33.1953125 C14.3068168 33.14848379 12.15326226 33.07674994 10 33 C10 38.94 10 44.88 10 51 C6.7 51 3.4 51 0 51 C0 34.17 0 17.34 0 0 Z " fill="#FAFBFB" transform="translate(224,149)"/>
<path d="M0 0 C4.48114102 2.65210387 8.2806431 5.79090328 10.0625 10.8125 C10.0625 12.1325 10.0625 13.4525 10.0625 14.8125 C6.68133859 15.10794129 3.43422652 15.25752602 0.0625 14.8125 C-0.741875 13.9875 -1.54625 13.1625 -2.375 12.3125 C-5.45490851 9.30771121 -6.44773416 9.42369869 -10.625 9.375 C-14.78222339 9.35184504 -14.78222339 9.35184504 -17.9375 11.8125 C-18.10437448 14.39604218 -18.10437448 14.39604218 -17.9375 16.8125 C-17.36306152 16.91272461 -16.78862305 17.01294922 -16.19677734 17.11621094 C-13.56586244 17.58376422 -10.93940218 18.07292435 -8.3125 18.5625 C-6.95705078 18.79839844 -6.95705078 18.79839844 -5.57421875 19.0390625 C1.38805708 20.36037032 5.7052719 22.08307799 10.4375 27.5625 C13.14820706 32.98391411 12.63605488 37.00127405 10.875 42.5625 C8.02886039 47.66592274 4.52078639 49.9982181 -0.9375 51.8125 C-8.79848739 52.62020002 -16.47497521 52.85522767 -22.9375 47.8125 C-26.86175443 43.68170586 -28.9375 40.53375243 -28.9375 34.8125 C-25.2302308 34.52926212 -21.63464999 34.35721298 -17.9375 34.8125 C-16 37.1875 -16 37.1875 -14.9375 39.8125 C-11.80203804 41.9308658 -9.51150253 41.98208835 -5.8125 41.5625 C-4.94367188 41.47484375 -4.07484375 41.3871875 -3.1796875 41.296875 C-0.74706453 40.98329958 -0.74706453 40.98329958 1.0625 38.8125 C0.97138062 36.27298456 0.97138062 36.27298456 0.0625 33.8125 C-3.97585802 31.12026132 -8.15900603 30.81003001 -12.86914062 30.1328125 C-18.60540948 29.18839405 -22.81717251 27.22528646 -26.75 22.75 C-29.18220736 18.78166168 -29.31778959 15.37597512 -28.9375 10.8125 C-26.97941471 5.45294083 -23.94857074 2.58458169 -18.9375 -0.1875 C-13.13327776 -2.12224075 -5.75996617 -2.25058281 0 0 Z " fill="#F5F6F8" transform="translate(202.9375,149.1875)"/>
<path d="M0 0 C0 10.23 0 20.46 0 31 C2.31 31 4.62 31 7 31 C7 34.3 7 37.6 7 41 C4.69 41 2.38 41 0 41 C0 44.3 0 47.6 0 51 C-3.3 51 -6.6 51 -10 51 C-10 47.7 -10 44.4 -10 41 C-18.91 41 -27.82 41 -37 41 C-37 30 -37 30 -34.69140625 26.46875 C-33.6741184 25.45278523 -32.62967993 24.4634241 -31.5625 23.5 C-30.45569329 22.40761636 -29.35155675 21.31252121 -28.25 20.21484375 C-27.69957031 19.67972168 -27.14914062 19.14459961 -26.58203125 18.59326172 C-24.22177507 16.21625064 -22.16071031 13.67463006 -20.0625 11.0625 C-18.97775391 9.73992187 -18.97775391 9.73992187 -17.87109375 8.390625 C-16.02570849 6.11418439 -16.02570849 6.11418439 -14.72265625 3.984375 C-10.69199997 -2.15484523 -8.71272438 0 0 0 Z " fill="#171E69" transform="translate(457,149)"/>
<path d="M0 0 C3.86034371 2.33416131 6.09374783 5.12735151 7.4375 9.4375 C8.29752072 15.11165968 7.70158691 19.59764699 4.4375 24.4375 C0.68163433 28.42810728 -3.84819074 29.75280378 -8.90234375 31.5078125 C-15.05705829 33.65879937 -17.09734798 34.66224663 -20.5625 40.4375 C-11.3225 40.4375 -2.0825 40.4375 7.4375 40.4375 C7.4375 43.7375 7.4375 47.0375 7.4375 50.4375 C-5.7625 50.4375 -18.9625 50.4375 -32.5625 50.4375 C-32.5625 41.85129076 -32.1108423 36.92258244 -28 29.6875 C-21.60023594 23.78002549 -12.67001355 21.19652077 -4.5625 18.4375 C-3.79533149 15.58671909 -3.79533149 15.58671909 -3.5625 12.4375 C-5.12891616 10.24859924 -6.05586991 9.53111643 -8.71875 9.0390625 C-9.4921875 9.04679688 -10.265625 9.05453125 -11.0625 9.0625 C-12.22265625 9.05089844 -12.22265625 9.05089844 -13.40625 9.0390625 C-16.07306642 9.5318438 -16.92431317 10.3098549 -18.5625 12.4375 C-18.8925 13.4275 -19.2225 14.4175 -19.5625 15.4375 C-23.1925 15.4375 -26.8225 15.4375 -30.5625 15.4375 C-30.43739293 9.43236074 -28.49413022 6.5817473 -24.546875 2.13671875 C-18.16065627 -3.33179532 -7.47553516 -3.27405957 0 0 Z " fill="#151B68" transform="translate(500.5625,149.5625)"/>
<path d="M0 0 C5.4204751 3.21711404 10.34358869 8.08088108 12.546875 14.08984375 C12.546875 15.40984375 12.546875 16.72984375 12.546875 18.08984375 C10.9441968 18.19809218 9.33941752 18.2755502 7.734375 18.33984375 C6.84105469 18.38625 5.94773437 18.43265625 5.02734375 18.48046875 C2.546875 18.08984375 2.546875 18.08984375 0.72265625 16.19921875 C-0.453125 14.08984375 -0.453125 14.08984375 -0.453125 12.08984375 C-5.2007892 10.12130006 -8.46425519 9.72924289 -13.453125 11.08984375 C-17.06284783 13.97762201 -19.303062 16.59414295 -20.453125 21.08984375 C-20.93286365 26.94265524 -20.46546547 31.94044665 -17.453125 37.08984375 C-14.84505417 39.57660896 -13.08031136 40.96756963 -9.42578125 41.2421875 C-5.8536915 40.98276199 -3.88877636 40.42496018 -1.015625 38.21484375 C0.72007748 36.08227248 0.72007748 36.08227248 1.546875 33.08984375 C5.176875 33.08984375 8.806875 33.08984375 12.546875 33.08984375 C11.92460065 39.62372443 9.36302506 43.35265674 4.671875 47.83984375 C-1.54479161 52.31584371 -7.93943016 53.12511136 -15.453125 52.08984375 C-21.64012059 49.65475934 -26.39004473 45.11617783 -29.421875 39.19921875 C-32.73478889 30.91693403 -32.83891745 21.06603195 -29.953125 12.65234375 C-24.62089668 1.0928345 -12.10987548 -4.4929952 0 0 Z " fill="#F6F7F9" transform="translate(342.453125,148.91015625)"/>
<path d="M0 0 C4.29 0 8.58 0 13 0 C16.72516948 8.76138162 19.57976145 17.75099564 22.42871094 26.82495117 C23.256296 29.45752779 24.09263662 32.08721668 24.9296875 34.71679688 C25.45885711 36.39306391 25.98752154 38.06949052 26.515625 39.74609375 C26.8905307 40.92261757 26.8905307 40.92261757 27.27301025 42.12290955 C28.22880175 45.18481685 29 47.77224556 29 51 C25.7 51 22.4 51 19 51 C15.94197917 43.32031014 13.65820294 35.41756094 11.3125 27.5 C10.8928357 26.09106909 10.47291593 24.68221424 10.05273438 23.2734375 C9.03220848 19.8498306 8.01514708 16.42520619 7 13 C2.71330837 25.58645627 -1.24538208 38.24495046 -5 51 C-8.63 51 -12.26 51 -16 51 C-10.7946018 33.95785854 -5.46890793 16.95943258 0 0 Z " fill="#F7F8FA" transform="translate(278,149)"/>
<path d="M0 0 C0 9.9 0 19.8 0 30 C-0.33 30 -0.66 30 -1 30 C-1.04898438 29.21753906 -1.09796875 28.43507812 -1.1484375 27.62890625 C-1.22320312 26.61699219 -1.29796875 25.60507813 -1.375 24.5625 C-1.47941406 23.04849609 -1.47941406 23.04849609 -1.5859375 21.50390625 C-1.79089844 20.26447266 -1.79089844 20.26447266 -2 19 C-2.66 18.67 -3.32 18.34 -4 18 C-4 18.66 -4 19.32 -4 20 C-4.99 20 -5.98 20 -7 20 C-7.33 20.66 -7.66 21.32 -8 22 C-8.33 19.03 -8.66 16.06 -9 13 C-14.54462297 18.31359701 -19.27223829 23.94514728 -24 30 C-19.05 30.33 -14.1 30.66 -9 31 C-9 31.33 -9 31.66 -9 32 C-13.95 32 -18.9 32 -24 32 C-24 32.66 -24 33.32 -24 34 C-24.66 34 -25.32 34 -26 34 C-26 34.66 -26 35.32 -26 36 C-26.66 36 -27.32 36 -28 36 C-28 36.66 -28 37.32 -28 38 C-22.72 38 -17.44 38 -12 38 C-12 38.66 -12 39.32 -12 40 C-19.59 40 -27.18 40 -35 40 C-35 29 -35 29 -32.91015625 25.6875 C-31.97042969 24.800625 -31.03070313 23.91375 -30.0625 23 C-29.04812038 22.00008803 -28.03644743 20.99742365 -27.02734375 19.9921875 C-26.26333252 19.2511377 -26.26333252 19.2511377 -25.48388672 18.49511719 C-23.18668578 16.18053039 -21.16611292 13.66520462 -19.125 11.125 C-18.39410156 10.23425781 -17.66320312 9.34351563 -16.91015625 8.42578125 C-15.03243917 6.1154334 -15.03243917 6.1154334 -13.68359375 3.98046875 C-9.76355293 -1.85178711 -8.36297119 0 0 0 Z " fill="#101766" transform="translate(456,149)"/>
<path d="M0 0 C0.66 0 1.32 0 2 0 C2 0.99 2 1.98 2 3 C11.24 3 20.48 3 30 3 C30 6.3 30 9.6 30 13 C17.46 13 4.92 13 -8 13 C-8 10.36 -8 7.72 -8 5 C-2.25 2 -2.25 2 0 2 C0 1.34 0 0.68 0 0 Z " fill="#0F1661" transform="translate(478,187)"/>
<path d="M0 0 C11.55 0 23.1 0 35 0 C35 3.3 35 6.6 35 10 C23.45 10 11.9 10 0 10 C0 6.7 0 3.4 0 0 Z " fill="#141C66" transform="translate(375,180)"/>
<path d="M0 0 C11.55 0 23.1 0 35 0 C35 3.3 35 6.6 35 10 C23.45 10 11.9 10 0 10 C0 6.7 0 3.4 0 0 Z " fill="#141C6C" transform="translate(375,159)"/>
<path d="M0 0 C2.0625 -0.061875 4.125 -0.12375 6.25 -0.1875 C7.99023438 -0.23970703 7.99023438 -0.23970703 9.765625 -0.29296875 C13.25414263 0.02302017 14.62112734 0.46446987 17 3 C17.46913089 7.37855495 17.46943529 9.29584707 15 13 C12.37302936 13.22137393 9.99106036 13.28162025 7.375 13.1875 C6.66859375 13.17396484 5.9621875 13.16042969 5.234375 13.14648438 C3.48925872 13.1111104 1.74453392 13.05730221 0 13 C0 8.71 0 4.42 0 0 Z " fill="#131A6C" transform="translate(234,159)"/>
<path d="M0 0 C0.33 0 0.66 0 1 0 C1 5.94 1 11.88 1 18 C-4.28 18 -9.56 18 -15 18 C-10.49493585 11.24240378 -10.49493585 11.24240378 -8.23828125 8.7890625 C-7.75939453 8.26699219 -7.28050781 7.74492187 -6.78710938 7.20703125 C-6.30048828 6.68496094 -5.81386719 6.16289062 -5.3125 5.625 C-4.81427734 5.07972656 -4.31605469 4.53445312 -3.80273438 3.97265625 C-2.55901872 2.62600077 -1.28235724 1.30991202 0 0 Z " fill="#EBEDF8" transform="translate(446,162)"/>
<path d="M0 0 C2.0625 -0.061875 4.125 -0.12375 6.25 -0.1875 C7.99023438 -0.23970703 7.99023438 -0.23970703 9.765625 -0.29296875 C13.24698247 0.0223716 14.61831539 0.4782163 17 3 C17.25 6.1875 17.25 6.1875 17 9 C15.35 8.67 13.7 8.34 12 8 C12 6.02 12 4.04 12 2 C8.37 2 4.74 2 1 2 C1 5.3 1 8.6 1 12 C5.29 12 9.58 12 14 12 C14 12.33 14 12.66 14 13 C9.38 13 4.76 13 0 13 C0 8.71 0 4.42 0 0 Z " fill="#11165C" transform="translate(234,159)"/>
<path d="M0 0 C7.32489451 0.47257384 7.32489451 0.47257384 10 2.5625 C10.33 3.036875 10.66 3.51125 11 4 C10.34 4 9.68 4 9 4 C8.67 5.65 8.34 7.3 8 9 C7.01 9 6.02 9 5 9 C5 8.34 5 7.68 5 7 C5.66 7 6.32 7 7 7 C7 6.34 7 5.68 7 5 C4.36 5.33 1.72 5.66 -1 6 C-1.042721 4.33388095 -1.04063832 2.66617115 -1 1 C-0.67 0.67 -0.34 0.34 0 0 Z " fill="#13196F" transform="translate(331,158)"/>
<path d="M0 0 C3.3 0 6.6 0 10 0 C9.67 1.98 9.34 3.96 9 6 C5.7 6 2.4 6 -1 6 C-0.67 4.02 -0.34 2.04 0 0 Z " fill="#0E1569" transform="translate(471,159)"/>
<path d="M0 0 C0.99 0.33 1.98 0.66 3 1 C3 1.99 3 2.98 3 4 C3.66 4 4.32 4 5 4 C5.33 4.99 5.66 5.98 6 7 C4.8125 8.5 4.8125 8.5 3 10 C0.3125 10.1875 0.3125 10.1875 -2 10 C-3.01136941 7.26930259 -3.04557718 6.13998707 -2.125 3.3125 C-1 1 -1 1 0 0 Z " fill="#181E70" transform="translate(427,171)"/>
<path d="M0 0 C3.63 0 7.26 0 11 0 C11 0.33 11 0.66 11 1 C8.36 1.33 5.72 1.66 3 2 C3.99 3.485 3.99 3.485 5 5 C5.99 5 6.98 5 8 5 C8 4.34 8 3.68 8 3 C8.66 3 9.32 3 10 3 C9.67 4.32 9.34 5.64 9 7 C6.21176345 8.0326802 5.1322726 8.04509293 2.25 7.0625 C1.5075 6.711875 0.765 6.36125 0 6 C0 4.02 0 2.04 0 0 Z " fill="#0F165C" transform="translate(202,164)"/>
<path d="M0 0 C2.95183101 2.95183101 3.08663988 5.95511947 4 10 C3.01 10.495 3.01 10.495 2 11 C1.67 10.34 1.34 9.68 1 9 C0.34 9 -0.32 9 -1 9 C-1.33 10.32 -1.66 11.64 -2 13 C-3.18414294 9.44757118 -2.69535532 8.30169438 -1.5625 4.8125 C-1.27503906 3.91144531 -0.98757813 3.01039063 -0.69140625 2.08203125 C-0.46324219 1.39496094 -0.23507812 0.70789063 0 0 Z " fill="#24286D" transform="translate(284,160)"/>
<path d="M0 0 C1.32 0 2.64 0 4 0 C4 2.97 4 5.94 4 9 C3.01 8.67 2.02 8.34 1 8 C1 7.34 1 6.68 1 6 C0.01 6 -0.98 6 -2 6 C-2 5.34 -2 4.68 -2 4 C-1.34 4 -0.68 4 0 4 C0 2.68 0 1.36 0 0 Z " fill="#19206F" transform="translate(504,159)"/>
<path d="M0 0 C0.8971875 0.5259375 0.8971875 0.5259375 1.8125 1.0625 C4.10813214 2.33304698 4.10813214 2.33304698 7 1 C6.67 2.98 6.34 4.96 6 7 C3.00675737 5.9024777 2.15389099 5.32317108 0.75 2.375 C0.5025 1.59125 0.255 0.8075 0 0 Z " fill="#10145F" transform="translate(323,182)"/>
<path d="M0 0 C0.66 0 1.32 0 2 0 C2.66 2.31 3.32 4.62 4 7 C1.69 7 -0.62 7 -3 7 C-2.67 6.01 -2.34 5.02 -2 4 C-1.34 4 -0.68 4 0 4 C0 2.68 0 1.36 0 0 Z " fill="#192261" transform="translate(460,183)"/>
<path d="M0 0 C0.66 0 1.32 0 2 0 C2 0.66 2 1.32 2 2 C5.3 2.33 8.6 2.66 12 3 C12 3.33 12 3.66 12 4 C9.03 4 6.06 4 3 4 C3 4.66 3 5.32 3 6 C1.68 5.67 0.36 5.34 -1 5 C-0.67 3.35 -0.34 1.7 0 0 Z " fill="#0A104C" transform="translate(261,197)"/>
<path d="M0 0 C2.97 0 5.94 0 9 0 C7.515 1.485 7.515 1.485 6 3 C6 3.66 6 4.32 6 5 C5.34 5 4.68 5 4 5 C3.67 5.66 3.34 6.32 3 7 C2.87625 6.030625 2.7525 5.06125 2.625 4.0625 C2.41875 3.051875 2.2125 2.04125 2 1 C1.34 0.67 0.68 0.34 0 0 Z " fill="#0C1459" transform="translate(188,158)"/>
<path d="M0 0 C7.625 0.625 7.625 0.625 11 4 C5.06 3.01 5.06 3.01 -1 2 C-0.67 1.34 -0.34 0.68 0 0 Z " fill="#2A2D6E" transform="translate(331,158)"/>
<path d="M0 0 C0.99 0.99 1.98 1.98 3 3 C1.68 4.32 0.36 5.64 -1 7 C-1.66 6.01 -2.32 5.02 -3 4 C-2.01 2.68 -1.02 1.36 0 0 Z " fill="#191E70" transform="translate(212,168)"/>
<path d="M0 0 C0.66 1.32 1.32 2.64 2 4 C0.8553125 4.12375 0.8553125 4.12375 -0.3125 4.25 C-3.52373261 5.14615794 -4.29374499 6.21611025 -6 9 C-5.69381595 5.32579134 -5.24228216 4.21864487 -2.4375 1.6875 C-1.633125 1.130625 -0.82875 0.57375 0 0 Z " fill="#10135B" transform="translate(329,159)"/>
<path d="M0 0 C1.0625 1.8125 1.0625 1.8125 2 4 C1.67 4.99 1.34 5.98 1 7 C0.34 7 -0.32 7 -1 7 C-2 4 -2 4 -1.0625 1.8125 C-0.5365625 0.9153125 -0.5365625 0.9153125 0 0 Z " fill="#121971" transform="translate(189,159)"/>
</svg>
