<?xml version="1.0" standalone="yes"?>
<svg xmlns="http://www.w3.org/2000/svg" width="200" height="200">
<path style="fill:#ffffff; stroke:none;" d="M0 0L0 200L200 200L200 0L0 0z"/>
<path style="fill:#a0c5f4; stroke:none;" d="M100 0L101 1L100 0M50 30L50 31L56 31L50 30M41 31L41 32L44 32L41 31z"/>
<path style="fill:#39b7e0; stroke:none;" d="M44 31.4282C37.2562 32.3944 22.0631 34.3005 18.0679 40.6373C16.1103 43.7423 19.0077 49.105 20.3117 52C24.8694 62.1186 30.8378 71.3089 39.0008 78.9097C57.2195 95.8736 82.8741 101.964 107 97.5756C112.577 96.5611 125.016 94.6489 127.637 88.787C131.66 79.7867 116.253 60.9565 110.829 55.0039C94.7186 37.3217 67.5755 28.0508 44 31.4282z"/>
<path style="fill:#a0c5f4; stroke:none;" d="M64 31L64 32L67 32L64 31M36.6667 32.3333L37.3333 32.6667L36.6667 32.3333M69 32L69 33L72 33L69 32M32.6667 33.3333L33.3333 33.6667L32.6667 33.3333M74 33L75 34L74 33M29.6667 34.3333L30.3333 34.6667L29.6667 34.3333M77.6667 34.3333L78.3333 34.6667L77.6667 34.3333M26.6667 35.3333L27.3333 35.6667L26.6667 35.3333M80 35L81 36L80 35M24 36L25 37L24 36M83 36L84 37L83 36M130 36L130 37L141 37L130 36M21.6667 37.3333L22.3333 37.6667L21.6667 37.3333M85 37L86 38L85 37M124.667 37.3333L125.333 37.6667L124.667 37.3333z"/>
<path style="fill:#4c78ee; stroke:none;" d="M105 48L118.561 66L129 87C142.125 67.7654 162.911 52.037 187 51C182.029 44.44 171.812 48.5689 165 46.4398C159.405 44.691 154.703 40.5742 149 38.7461C132.897 33.5845 118.364 38.9919 105 48z"/>
<path style="fill:#a0c5f4; stroke:none;" d="M144 37L144 38L147 38L144 37M19.6667 38.3333L20.3333 38.6667L19.6667 38.3333M87 38L88 39L87 38M121.667 38.3333L122.333 38.6667L121.667 38.3333M148.667 38.3333L149.333 38.6667L148.667 38.3333M17.6667 39.3333L18.3333 39.6667L17.6667 39.3333M89 39L90 40L89 39M118.667 39.3333L119.333 39.6667L118.667 39.3333M151.667 39.3333L152.333 39.6667L151.667 39.3333M16.3333 40.6667L16.6667 41.3333L16.3333 40.6667M91 40L92 41L91 40M116.667 40.3333L117.333 40.6667L116.667 40.3333M153.667 40.3333L154.333 40.6667L153.667 40.3333M93 41L94 42L93 41M114.667 41.3333L115.333 41.6667L114.667 41.3333M156 41L157 42L156 41M94 42L95 43L94 42M113 42L114 43L113 42M157.667 42.3333L158.333 42.6667L157.667 42.3333M96 43L97 44L96 43M111 43L112 44L111 43M159 43L160 44L159 43M17.3333 44.6667L17.6667 45.3333L17.3333 44.6667M97 44L98 45L97 44M110 44L111 45L110 44M161 44L162 45L161 44M99 45L100 46L99 45M108 45L109 46L108 45M162 45L163 46L162 45M100 46L101 47L100 46M107 46L108 47L107 46M163 46L163 47L179 47L163 46M18.3333 47.6667L18.6667 48.3333L18.3333 47.6667M105 47L106 48L105 47M180 47L180 48L184 48L180 47M103.667 48.3333L104.333 48.6667L103.667 48.3333M184.667 48.3333L185.333 48.6667L184.667 48.3333M187.333 49.6667L187.667 50.3333L187.333 49.6667M19 50L20 51L19 50M181 51L181 52L185 52L181 51M20.3333 52.6667L20.6667 53.3333L20.3333 52.6667M176 52L176 53L179 53L176 52M172 53L172 54L175 54L172 53M21.3333 54.6667L21.6667 55.3333L21.3333 54.6667M169.667 54.3333L170.333 54.6667L169.667 54.3333M166.667 55.3333L167.333 55.6667L166.667 55.3333M22.3333 56.6667L22.6667 57.3333L22.3333 56.6667M164.667 56.3333L165.333 56.6667L164.667 56.3333M162 57L163 58L162 57M23.3333 58.6667L23.6667 59.3333L23.3333 58.6667M160 58L161 59L160 58M158 59L159 60L158 59M24 60L25 61L24 60M156 60L157 61L156 60M154.667 61.3333L155.333 61.6667L154.667 61.3333M25 62L26 63L25 62M153 62L154 63L153 62z"/>
<path style="fill:#39b7e0; stroke:none;" d="M151 63L152 64L151 63z"/>
<path style="fill:#a0c5f4; stroke:none;" d="M150 64L151 65L150 64M27 65L28 66L27 65M148 65L149 66L148 65M28 66L29 67L28 66M147 66L148 67L147 66M146 67L147 68L146 67M29 68L30 69L29 68M145 68L146 69L145 68M30 69L31 70L30 69M143 69L144 70L143 69M31 70L32 71L31 70M142 70L143 71L142 70M141 71L142 72L141 71M140 72L141 73L140 72M33 73L34 74L33 73M139 73L140 74L139 73M34 74L35 75L34 74M138 74L139 75L138 74M35 75L36 76L35 75M137 75L138 76L137 75M36 76L37 77L36 76M136.333 76.6667L136.667 77.3333L136.333 76.6667M37 77L38 78L37 77M38 78L39 79L38 78M135 78L136 79L135 78M39 79L40 80L39 79M134 79L135 80L134 79M40 80L41 81L40 80M133 80L134 81L133 80z"/>
<path style="fill:#39b7e0; stroke:none;" d="M132 81L133 82L132 81z"/>
<path style="fill:#a0c5f4; stroke:none;" d="M43 82L44 83L43 82M132 82L133 83L132 82M44 83L45 84L44 83M131 83L132 84L131 83M45 84L46 85L45 84z"/>
<path style="fill:#39b7e0; stroke:none;" d="M130 84L131 85L130 84z"/>
<path style="fill:#a0c5f4; stroke:none;" d="M47 85L48 86L47 85M130 85L131 86L130 85M48 86L49 87L48 86M129 86L130 87L129 86M50 87L51 88L50 87M51.6667 88.3333L52.3333 88.6667L51.6667 88.3333M53 89L54 90L53 89M55 90L56 91L55 90M127 90L128 91L127 90M57 91L58 92L57 91z"/>
<path style="fill:#4c78ee; stroke:none;" d="M125.667 91.3333L126.333 91.6667L125.667 91.3333z"/>
<path style="fill:#a0c5f4; stroke:none;" d="M59 92L60 93L59 92z"/>
<path style="fill:#4c78ee; stroke:none;" d="M123 92L124 93L123 92z"/>
<path style="fill:#0b26ba; stroke:none;" d="M74 98L77 136C99.2213 134.048 118.048 111.101 126 92L93 99.7909L74 98z"/>
<path style="fill:#a0c5f4; stroke:none;" d="M126 92L127 93L126 92M61.6667 93.3333L62.3333 93.6667L61.6667 93.3333z"/>
<path style="fill:#4c78ee; stroke:none;" d="M125 93L126 94L125 93z"/>
<path style="fill:#a0c5f4; stroke:none;" d="M64.6667 94.3333L65.3333 94.6667L64.6667 94.3333z"/>
<path style="fill:#4c78ee; stroke:none;" d="M118 94L119 95L118 94z"/>
<path style="fill:#a0c5f4; stroke:none;" d="M125 94L126 95L125 94M67 95L68 96L67 95z"/>
<path style="fill:#4c78ee; stroke:none;" d="M115 95L116 96L115 95M124 95L125 96L124 95z"/>
<path style="fill:#a0c5f4; stroke:none;" d="M70.6667 96.3333L71.3333 96.6667L70.6667 96.3333z"/>
<path style="fill:#4c78ee; stroke:none;" d="M112 96L113 97L112 96z"/>
<path style="fill:#a0c5f4; stroke:none;" d="M124 96L125 97L124 96z"/>
<path style="fill:#4c78ee; stroke:none;" d="M74.6667 97.3333L75.3333 97.6667L74.6667 97.3333M107.667 97.3333L108.333 97.6667L107.667 97.3333M123 97L124 98L123 97M79.6667 98.3333L80.3333 98.6667L79.6667 98.3333M101 98L101 99L104 99L101 98z"/>
<path style="fill:#a0c5f4; stroke:none;" d="M123 98L124 99L123 98M0.333333 99.6667L0.666667 100.333L0.333333 99.6667M73 99L73 103L74 103L73 99z"/>
<path style="fill:#4c78ee; stroke:none;" d="M88 99L88 100L96 100L88 99M122 99L123 100L122 99z"/>
<path style="fill:#a0c5f4; stroke:none;" d="M122 100L123 101L122 100z"/>
<path style="fill:#4c78ee; stroke:none;" d="M121 101L122 102L121 101z"/>
<path style="fill:#a0c5f4; stroke:none;" d="M121 102L122 103L121 102z"/>
<path style="fill:#4c78ee; stroke:none;" d="M73 103L73 107L74 107L73 103M120 103L121 104L120 103M119 104L120 105L119 104z"/>
<path style="fill:#a0c5f4; stroke:none;" d="M119 105L120 106L119 105M118 106L119 107L118 106z"/>
<path style="fill:#4c78ee; stroke:none;" d="M117 107L118 108L117 107z"/>
<path style="fill:#a0c5f4; stroke:none;" d="M117 108L118 109L117 108M116 109L117 110L116 109z"/>
<path style="fill:#4c78ee; stroke:none;" d="M115 110L116 111L115 110M114 111L113 113L114 111z"/>
<path style="fill:#a0c5f4; stroke:none;" d="M114 112L115 113L114 112M113 113L114 114L113 113z"/>
<path style="fill:#4c78ee; stroke:none;" d="M73 114L73 119L74 119L73 114z"/>
<path style="fill:#a0c5f4; stroke:none;" d="M112 114L113 115L112 114M111 115L112 116L111 115z"/>
<path style="fill:#4c78ee; stroke:none;" d="M110 116C101.171 124.756 89.6912 134.098 77 136C85.1536 153.144 96.6212 172.866 116 179C121.544 165.685 126.952 153.797 126.999 139C127.012 134.979 127.528 127.955 124.976 124.563C122.255 120.947 113.946 118.872 110 116z"/>
<path style="fill:#a0c5f4; stroke:none;" d="M111 117L112 118L111 117M113 118L114 119L113 118M73 119L73 123L74 123L73 119M114.667 119.333L115.333 119.667L114.667 119.333M116.667 120.333L117.333 120.667L116.667 120.333M118.667 121.333L119.333 121.667L118.667 121.333M121.667 122.333L122.333 122.667L121.667 122.333M125 123L126 124L125 123z"/>
<path style="fill:#4c78ee; stroke:none;" d="M74.3333 124.667L74.6667 125.333L74.3333 124.667z"/>
<path style="fill:#a0c5f4; stroke:none;" d="M126 125L126 131L127 131L126 125M74.3333 126.667L74.6667 127.333L74.3333 126.667z"/>
<path style="fill:#4c78ee; stroke:none;" d="M75 129L76 130L75 129z"/>
<path style="fill:#a0c5f4; stroke:none;" d="M75.3333 130.667L75.6667 131.333L75.3333 130.667z"/>
<path style="fill:#4c78ee; stroke:none;" d="M76 133L77 134L76 133z"/>
<path style="fill:#a0c5f4; stroke:none;" d="M76 134L77 135L76 134M127 135L127 142L128 142L127 135M77 137L78 138L77 137M78.3333 138.667L78.6667 139.333L78.3333 138.667M79 141L80 142L79 141M80.3333 143.667L80.6667 144.333L80.3333 143.667M81 145L82 146L81 145M126 146L126 152L127 152L126 146M82 147L83 148L82 147M83 149L84 150L83 149M84.3333 150.667L84.6667 151.333L84.3333 150.667M85 152L86 153L85 152M125 153L125 156L126 156L125 153M86 154L87 155L86 154M87 155L88 156L87 155z"/>
<path style="fill:#39b7e0; stroke:none;" d="M88 156L89 157L88 156z"/>
<path style="fill:#a0c5f4; stroke:none;" d="M88 157L89 158L88 157M89 158L90 159L89 158M124.333 158.667L124.667 159.333L124.333 158.667M90 159L91 160L90 159M91 160L92 161L91 160M92 161L93 162L92 161M123.333 161.667L123.667 162.333L123.333 161.667M94 164L95 165L94 164M122.333 164.667L122.667 165.333L122.333 164.667M95 165L96 166L95 165M96 166L97 167L96 166M97.6667 167.333L98.3333 167.667L97.6667 167.333M121 167L122 168L121 167M99 168L100 169L99 168M100 169L101 170L100 169M120.333 169.667L120.667 170.333L120.333 169.667M101 170L102 171L101 170M102 171L103 172L102 171M119.333 171.667L119.667 172.333L119.333 171.667M103.667 172.333L104.333 172.667L103.667 172.333M105 173L106 174L105 173M118.333 173.667L118.667 174.333L118.333 173.667M106 174L107 175L106 174M108 175L109 176L108 175M117.333 175.667L117.667 176.333L117.333 175.667M109.667 176.333L110.333 176.667L109.667 176.333M111 177L112 178L111 177M116 177L117 178L116 177M113 178L114 179L113 178M115 179L116 180L115 179z"/>
</svg>
