<?xml version="1.0" standalone="no"?>
<!DOCTYPE svg PUBLIC "-//W3C//DTD SVG 20010904//EN"
 "http://www.w3.org/TR/2001/REC-SVG-20010904/DTD/svg10.dtd">
<svg version="1.0" xmlns="http://www.w3.org/2000/svg"
 width="134.000000pt" height="136.000000pt" viewBox="0 0 134.000000 136.000000"
 preserveAspectRatio="xMidYMid meet">

<g transform="translate(0.000000,136.000000) scale(0.100000,-0.100000)"
fill="#ffffff" stroke="none">
<path d="M670 1327 c0 -3 -20 -98 -45 -211 -25 -114 -45 -209 -45 -212 0 -3
-75 46 -167 109 -190 128 -198 134 -191 121 3 -5 53 -89 112 -188 59 -98 105
-180 102 -183 -3 -3 -92 -21 -197 -39 -106 -18 -197 -35 -202 -37 -6 -2 72
-25 174 -51 101 -26 190 -51 197 -55 23 -13 -111 -61 -152 -54 -41 6 -66 -9
-66 -41 0 -49 58 -63 85 -22 11 16 54 40 127 71 143 60 170 54 99 -22 -29 -31
-44 -40 -60 -36 -12 3 -32 -2 -46 -11 -49 -32 -23 -116 37 -116 31 0 59 37 56
74 -1 26 6 41 35 71 35 36 67 42 67 13 0 -7 -20 -63 -45 -123 -33 -78 -53
-114 -68 -120 -25 -11 -34 -49 -17 -71 7 -7 25 -14 41 -14 37 0 57 36 39 70
-10 19 -5 38 36 136 35 85 51 114 63 112 28 -5 26 -64 -3 -99 -32 -38 -33 -53
-1 -85 23 -23 25 -33 25 -108 0 -65 -3 -85 -15 -90 -9 -3 -15 -18 -15 -36 0
-36 39 -61 68 -43 23 14 28 71 8 79 -13 5 -16 23 -16 90 0 75 2 85 25 108 32
32 32 61 0 90 -32 30 -36 96 -6 96 10 0 21 -6 24 -12 73 -175 87 -215 81 -241
-7 -32 17 -67 46 -67 20 0 50 31 50 52 0 16 -26 43 -48 50 -13 3 -102 200
-102 225 0 29 25 22 64 -16 34 -34 42 -47 38 -70 -3 -22 3 -33 24 -50 17 -14
36 -20 49 -17 25 7 115 -78 115 -109 0 -27 18 -45 45 -45 27 0 45 18 45 45 0
28 -19 45 -50 45 -17 0 -40 14 -68 43 -36 36 -42 48 -37 70 10 37 -35 82 -74
74 -23 -5 -35 1 -66 33 -28 28 -34 41 -24 44 8 3 123 33 257 67 133 34 241 63
239 65 -1 1 -85 17 -187 34 -102 17 -193 34 -203 38 -18 7 -6 29 196 362 l21
35 -22 -15 c-12 -8 -96 -66 -186 -128 l-164 -112 -16 68 c-8 38 -30 133 -47
213 -27 124 -39 170 -39 146z m-10 -357 c0 -134 -1 -140 -20 -140 -37 0 -40
37 -12 163 14 64 27 117 29 117 1 0 3 -63 3 -140z m64 10 c25 -112 21 -150
-16 -150 -17 0 -18 10 -17 143 1 78 3 135 6 126 2 -8 14 -62 27 -119z m-147
-114 c1 -1 4 -13 8 -28 14 -54 -19 -42 -93 34 -125 130 -128 141 -17 64 55
-38 101 -70 102 -70z m312 39 c-46 -48 -87 -93 -92 -101 -6 -10 -13 -12 -27
-4 -37 20 -7 60 98 131 53 37 99 65 101 63 2 -2 -34 -42 -80 -89z m-349 -132
c0 -4 -4 -14 -9 -22 -16 -26 -52 10 -113 112 -32 52 -58 98 -58 100 0 3 41
-37 90 -88 49 -51 90 -97 90 -102z m397 92 c-45 -75 -70 -107 -89 -114 -34
-12 -46 12 -21 43 20 24 166 176 170 176 1 0 -26 -47 -60 -105z m-196 -80 c43
-23 69 -71 69 -129 0 -43 -4 -53 -38 -86 -50 -50 -96 -60 -154 -31 -53 25 -81
70 -81 127 0 101 112 166 204 119z m354 -86 c26 -3 -133 -17 -202 -18 -45 -1
-53 2 -53 17 0 35 37 40 139 21 53 -10 105 -19 116 -20z m-601 25 c9 -3 16
-15 16 -25 0 -22 -16 -23 -175 -12 l-100 7 85 17 c93 18 150 22 174 13z m-51
-71 c56 -5 67 -9 67 -24 0 -32 -43 -33 -152 -4 -57 15 -105 29 -107 31 -7 6
116 5 192 -3z m527 -32 c-74 -20 -136 -37 -138 -36 -1 1 1 16 4 33 7 36 17 38
174 40 l95 0 -135 -37z m-712 -134 c4 -20 -25 -34 -40 -19 -15 15 -1 44 19 40
10 -2 19 -11 21 -21z m203 -53 c19 -23 -1 -49 -37 -49 -30 0 -42 20 -30 51 7
19 50 18 67 -2z m494 -19 c0 -24 -5 -31 -24 -33 -32 -5 -54 23 -40 50 7 13 19
18 37 16 23 -2 27 -8 27 -33z m-251 -37 c21 -30 4 -60 -32 -56 -34 4 -44 45
-16 65 24 18 30 17 48 -9z m414 -131 c4 -20 -25 -34 -40 -19 -15 15 -1 44 19
40 10 -2 19 -11 21 -21z m-238 -2 c15 -18 5 -35 -21 -35 -12 0 -19 7 -19 18 0
33 20 42 40 17z m-362 -18 c4 -21 -27 -35 -38 -17 -12 19 0 42 19 38 9 -2 17
-11 19 -21z m182 -146 c0 -24 -25 -34 -40 -16 -15 18 -5 35 21 35 12 0 19 -7
19 -19z"/>
<path d="M1071 512 c-23 -43 27 -91 68 -65 20 13 26 50 11 69 -18 20 -67 18
-79 -4z m65 -13 c10 -17 -23 -46 -37 -32 -7 7 -9 19 -6 27 7 18 33 21 43 5z"/>
<path d="M220 276 c-15 -19 -9 -56 11 -69 9 -5 28 -7 42 -3 52 13 42 86 -12
86 -16 0 -34 -7 -41 -14z m58 -29 c4 -20 -25 -34 -40 -19 -15 15 -1 44 19 40
10 -2 19 -11 21 -21z"/>
</g>
</svg>
