<?xml version="1.0"?>
<svg width="115" height="115" xmlns="http://www.w3.org/2000/svg" xmlns:svg="http://www.w3.org/2000/svg" enable-background="new -0.258 -0.548 123.547 123.539" version="1.1" xml:space="preserve">
 <metadata>image/svg+xmlOpenclipartNPS map pictographs part 742006-12-26T00:00:00https://openclipart.org/detail/11370/-by--11370johnny_automatic</metadata>
 <g class="layer">
  <title>Layer 1</title>
  <g id="svg_1">
   <!-- <path
        style="fill:#f76497"
        d="m109.66 123.48c8.148 0 14.742-6.617 14.742-14.773v-94.019c0-8.156-6.594-14.75-14.742-14.75h-94.035c-8.172 0-14.766 6.594-14.766 14.75v94.016c0 8.156 6.594 14.773 14.766 14.773h94.035z"
    />
	<path
        style="fill:#f76497"
        d="m15.625 2.434c-6.766 0-12.266 5.492-12.266 12.258v94.016c0 6.766 5.5 12.258 12.266 12.258h94.031c6.734 0 12.227-5.492 12.227-12.258v-94.019c0-6.766-5.492-12.258-12.227-12.258h-94.035z"
    /> -->
   <polygon fill="#f76497" id="svg_2" points="12.922 19.965 28.422 35.809 34.375 30.465 28.984 20.012"/>
   <path d="m82.8,64.35c2.93,0.8 6.08,-0.85 6.91,-3.83c0.81,-2.93 -0.91,-6.01 -3.86,-6.84l-2.29,-0.64l-2.98,10.65l2.22,0.66z" fill="#f76497" id="svg_3"/>
   <path d="m80.99,52.36l-18.55,-5.22c-1.22,-0.32 -2.45,0.41 -2.78,1.63l-1.75,6.2c-0.34,1.22 0.32,2.47 1.57,2.84l18.56,5.17l2.95,-10.62z" fill="#f76497" id="svg_4"/>
   <path d="m83.92,69.99c-1.41,-1.35 -3.17,-2.42 -5.23,-2.98l-22.49,-6.3l-13.82,-24.51c-0.72,-1.27 -1.9,-2.28 -3.41,-2.69c-3.03,-0.85 -6.18,0.93 -7.01,3.96c-0.41,1.44 -0.22,2.91 0.44,4.15l17.29,30.32s1.41,2.27 4.97,3.44l31.43,8.82l14.58,14.79c0.49,0.51 1.12,0.9 1.88,1.12c2.19,0.61 4.49,-0.7 5.13,-2.88c0.41,-1.53 -0.08,-3.15 -1.17,-4.15l-22.58,-23.09l-0.01,0z" fill="#f76497" id="svg_5"/>
   <path d="m100.7,76.11l3.27,4.28l6.64,-7.25l-5.61,-3.13c0.53,-3.93 -1.91,-7.73 -5.81,-8.84c-4.3,-1.19 -8.77,1.3 -9.96,5.6c-1.22,4.32 1.29,8.76 5.59,9.96c2.04,0.59 4.12,0.27 5.88,-0.62z" fill="#f76497" id="svg_6"/>
  </g>
  <ellipse cx="101.27" cy="51.77" fill="#ffffff" id="svg_7" rx="3" ry="3"/>
  <ellipse cx="104.11" cy="33.6" fill="#ffffff" id="svg_8" rx="2.5" ry="2.5"/>
  <ellipse cx="113.11" cy="45.6" fill="#ffffff" id="svg_10" rx="1.5" ry="1.5"/>
 </g>
</svg>